<?xml version="1.0" encoding="utf-8"?>
<svg viewBox="0 0 500 500" xmlns="http://www.w3.org/2000/svg">
  <path d="M 214.492 267.44 L 214.492 222.62 C 227.739 222.62 237.859 221.627 244.852 219.64 C 251.845 217.653 257.035 213.42 260.422 206.94 C 263.802 200.467 265.492 190.457 265.492 176.91 C 265.492 171.463 264.832 167.197 263.512 164.11 C 262.185 161.017 259.535 159.47 255.562 159.47 C 251.442 159.47 248.719 161.237 247.392 164.77 C 246.065 168.303 245.402 173.16 245.402 179.34 L 245.402 195.24 L 205.882 195.24 L 205.882 167.86 C 205.882 153.727 210.372 143.057 219.352 135.85 C 228.332 128.637 240.402 125.03 255.562 125.03 C 273.962 125.03 287.025 129.923 294.752 139.71 C 302.479 149.497 306.342 164.327 306.342 184.2 C 306.342 203.633 301.595 219.31 292.102 231.23 C 282.609 243.157 268.735 249.12 250.482 249.12 L 250.482 267.44 L 214.492 267.44 Z M 251.802 316.46 L 213.392 316.46 L 213.392 284.22 L 251.802 284.22 L 251.802 316.46 Z" transform="matrix(1, 0, 0, 1, 0, 0)" style="fill: rgb(113, 113, 113); white-space: pre;"/>
  <path d="M -130.37 412.598 L -130.37 430.358 L -120.94 430.358 L -120.94 432.508 L -133.01 432.508 L -133.01 412.598 L -130.37 412.598 ZM -119.013 425.148 L -119.013 424.978 C -119.013 423.525 -118.727 422.221 -118.153 421.068 C -117.587 419.908 -116.793 419.015 -115.773 418.388 C -114.76 417.755 -113.6 417.438 -112.293 417.438 C -110.28 417.438 -108.653 418.138 -107.413 419.538 C -106.167 420.931 -105.543 422.785 -105.543 425.098 L -105.543 425.278 C -105.543 426.718 -105.82 428.008 -106.373 429.148 C -106.92 430.295 -107.707 431.188 -108.733 431.828 C -109.76 432.461 -110.94 432.778 -112.273 432.778 C -114.273 432.778 -115.897 432.081 -117.143 430.688 C -118.39 429.295 -119.013 427.448 -119.013 425.148 Z M -116.463 425.278 C -116.463 426.918 -116.083 428.235 -115.323 429.228 C -114.563 430.221 -113.547 430.718 -112.273 430.718 C -110.987 430.718 -109.963 430.215 -109.203 429.208 C -108.45 428.201 -108.073 426.791 -108.073 424.978 C -108.073 423.351 -108.457 422.035 -109.223 421.028 C -109.997 420.021 -111.02 419.518 -112.293 419.518 C -113.547 419.518 -114.553 420.015 -115.313 421.008 C -116.08 422.001 -116.463 423.425 -116.463 425.278 ZM -103.045 425.148 L -103.045 424.978 C -103.045 423.525 -102.758 422.221 -102.185 421.068 C -101.618 419.908 -100.825 419.015 -99.805 418.388 C -98.791 417.755 -97.631 417.438 -96.325 417.438 C -94.311 417.438 -92.685 418.138 -91.445 419.538 C -90.198 420.931 -89.575 422.785 -89.575 425.098 L -89.575 425.278 C -89.575 426.718 -89.851 428.008 -90.405 429.148 C -90.951 430.295 -91.738 431.188 -92.765 431.828 C -93.791 432.461 -94.971 432.778 -96.305 432.778 C -98.305 432.778 -99.928 432.081 -101.175 430.688 C -102.421 429.295 -103.045 427.448 -103.045 425.148 Z M -100.495 425.278 C -100.495 426.918 -100.115 428.235 -99.355 429.228 C -98.595 430.221 -97.578 430.718 -96.305 430.718 C -95.018 430.718 -93.995 430.215 -93.235 429.208 C -92.481 428.201 -92.105 426.791 -92.105 424.978 C -92.105 423.351 -92.488 422.035 -93.255 421.028 C -94.028 420.021 -95.051 419.518 -96.325 419.518 C -97.578 419.518 -98.585 420.015 -99.345 421.008 C -100.111 422.001 -100.495 423.425 -100.495 425.278 ZM -77.116 432.508 L -82.276 425.658 L -83.856 427.308 L -83.856 432.508 L -86.386 432.508 L -86.386 411.508 L -83.856 411.508 L -83.856 424.208 L -82.506 422.578 L -77.896 417.718 L -74.826 417.718 L -80.576 423.898 L -74.156 432.508 L -77.116 432.508 ZM -63.594 428.588 C -63.594 427.901 -63.854 427.368 -64.374 426.988 C -64.888 426.615 -65.784 426.291 -67.064 426.018 C -68.344 425.745 -69.361 425.415 -70.114 425.028 C -70.868 424.648 -71.424 424.191 -71.784 423.658 C -72.144 423.131 -72.324 422.505 -72.324 421.778 C -72.324 420.565 -71.811 419.538 -70.784 418.698 C -69.758 417.858 -68.448 417.438 -66.854 417.438 C -65.174 417.438 -63.814 417.871 -62.774 418.738 C -61.728 419.605 -61.204 420.711 -61.204 422.058 L -63.744 422.058 C -63.744 421.371 -64.038 420.775 -64.624 420.268 C -65.218 419.768 -65.961 419.518 -66.854 419.518 C -67.774 419.518 -68.494 419.718 -69.014 420.118 C -69.534 420.518 -69.794 421.045 -69.794 421.698 C -69.794 422.305 -69.551 422.765 -69.064 423.078 C -68.584 423.385 -67.711 423.681 -66.444 423.968 C -65.184 424.248 -64.161 424.585 -63.374 424.978 C -62.594 425.365 -62.014 425.835 -61.634 426.388 C -61.254 426.941 -61.064 427.615 -61.064 428.408 C -61.064 429.728 -61.594 430.788 -62.654 431.588 C -63.714 432.381 -65.084 432.778 -66.764 432.778 C -67.951 432.778 -69.001 432.568 -69.914 432.148 C -70.828 431.735 -71.541 431.151 -72.054 430.398 C -72.568 429.645 -72.824 428.831 -72.824 427.958 L -70.294 427.958 C -70.248 428.805 -69.908 429.475 -69.274 429.968 C -68.641 430.468 -67.804 430.718 -66.764 430.718 C -65.811 430.718 -65.044 430.525 -64.464 430.138 C -63.884 429.751 -63.594 429.235 -63.594 428.588 ZM -48.095 411.508 L -48.095 432.508 L -50.625 432.508 L -50.625 411.508 L -48.095 411.508 ZM -41.3 417.718 L -41.3 432.508 L -43.83 432.508 L -43.83 417.718 L -41.3 417.718 Z M -44.03 413.788 C -44.03 413.381 -43.907 413.035 -43.66 412.748 C -43.407 412.468 -43.034 412.328 -42.54 412.328 C -42.047 412.328 -41.674 412.468 -41.42 412.748 C -41.167 413.035 -41.04 413.381 -41.04 413.788 C -41.04 414.201 -41.167 414.545 -41.42 414.818 C -41.674 415.091 -42.047 415.228 -42.54 415.228 C -43.034 415.228 -43.407 415.091 -43.66 414.818 C -43.907 414.545 -44.03 414.201 -44.03 413.788 ZM -27.965 432.508 L -33.125 425.658 L -34.705 427.308 L -34.705 432.508 L -37.235 432.508 L -37.235 411.508 L -34.705 411.508 L -34.705 424.208 L -33.355 422.578 L -28.745 417.718 L -25.675 417.718 L -31.425 423.898 L -25.005 432.508 L -27.965 432.508 ZM -17.197 432.778 C -19.204 432.778 -20.834 432.121 -22.087 430.808 C -23.347 429.488 -23.977 427.725 -23.977 425.518 L -23.977 425.058 C -23.977 423.591 -23.697 422.281 -23.137 421.128 C -22.577 419.975 -21.794 419.071 -20.787 418.418 C -19.781 417.765 -18.687 417.438 -17.507 417.438 C -15.587 417.438 -14.094 418.071 -13.027 419.338 C -11.961 420.605 -11.427 422.421 -11.427 424.788 L -11.427 425.838 L -21.447 425.838 C -21.407 427.298 -20.981 428.475 -20.167 429.368 C -19.354 430.268 -18.317 430.718 -17.057 430.718 C -16.164 430.718 -15.407 430.535 -14.787 430.168 C -14.167 429.808 -13.624 429.325 -13.157 428.718 L -11.617 429.928 C -12.857 431.828 -14.717 432.778 -17.197 432.778 Z M -17.507 419.518 C -18.527 419.518 -19.384 419.891 -20.077 420.638 C -20.771 421.378 -21.201 422.418 -21.367 423.758 L -13.957 423.758 L -13.957 423.568 C -14.031 422.281 -14.377 421.285 -14.997 420.578 C -15.617 419.871 -16.454 419.518 -17.507 419.518 ZM 8.018 417.718 L 11.528 429.018 L 14.378 417.718 L 16.898 417.718 L 12.598 432.508 L 10.548 432.508 L 6.948 421.298 L 3.448 432.508 L 1.398 432.508 L -2.892 417.718 L -0.382 417.718 L 2.538 428.788 L 5.978 417.718 L 8.018 417.718 ZM 25.609 432.778 C 23.602 432.778 21.972 432.121 20.719 430.808 C 19.459 429.488 18.829 427.725 18.829 425.518 L 18.829 425.058 C 18.829 423.591 19.109 422.281 19.669 421.128 C 20.229 419.975 21.012 419.071 22.019 418.418 C 23.026 417.765 24.119 417.438 25.299 417.438 C 27.219 417.438 28.712 418.071 29.779 419.338 C 30.846 420.605 31.379 422.421 31.379 424.788 L 31.379 425.838 L 21.359 425.838 C 21.399 427.298 21.826 428.475 22.639 429.368 C 23.452 430.268 24.489 430.718 25.749 430.718 C 26.642 430.718 27.399 430.535 28.019 430.168 C 28.639 429.808 29.182 429.325 29.649 428.718 L 31.189 429.928 C 29.949 431.828 28.089 432.778 25.609 432.778 Z M 25.299 419.518 C 24.279 419.518 23.422 419.891 22.729 420.638 C 22.036 421.378 21.606 422.418 21.439 423.758 L 28.849 423.758 L 28.849 423.568 C 28.776 422.281 28.429 421.285 27.809 420.578 C 27.189 419.871 26.352 419.518 25.299 419.518 ZM 47.175 430.718 C 48.075 430.718 48.861 430.445 49.535 429.898 C 50.208 429.351 50.581 428.668 50.655 427.848 L 53.055 427.848 C 53.008 428.695 52.715 429.501 52.175 430.268 C 51.635 431.035 50.918 431.645 50.025 432.098 C 49.125 432.551 48.175 432.778 47.175 432.778 C 45.161 432.778 43.558 432.108 42.365 430.768 C 41.178 429.421 40.585 427.581 40.585 425.248 L 40.585 424.828 C 40.585 423.388 40.848 422.105 41.375 420.978 C 41.901 419.858 42.661 418.988 43.655 418.368 C 44.641 417.748 45.808 417.438 47.155 417.438 C 48.815 417.438 50.195 417.935 51.295 418.928 C 52.395 419.921 52.981 421.211 53.055 422.798 L 50.655 422.798 C 50.581 421.845 50.221 421.058 49.575 420.438 C 48.921 419.825 48.115 419.518 47.155 419.518 C 45.875 419.518 44.881 419.981 44.175 420.908 C 43.468 421.835 43.115 423.171 43.115 424.918 L 43.115 425.398 C 43.115 427.105 43.465 428.418 44.165 429.338 C 44.865 430.258 45.868 430.718 47.175 430.718 ZM 67.681 432.508 L 65.031 432.508 C 64.884 432.215 64.764 431.695 64.671 430.948 C 63.498 432.168 62.094 432.778 60.461 432.778 C 59.001 432.778 57.804 432.368 56.871 431.548 C 55.938 430.721 55.471 429.675 55.471 428.408 C 55.471 426.868 56.058 425.671 57.231 424.818 C 58.398 423.965 60.044 423.538 62.171 423.538 L 64.631 423.538 L 64.631 422.378 C 64.631 421.491 64.368 420.788 63.841 420.268 C 63.308 419.741 62.528 419.478 61.501 419.478 C 60.601 419.478 59.844 419.705 59.231 420.158 C 58.618 420.618 58.311 421.171 58.311 421.818 L 55.771 421.818 C 55.771 421.078 56.034 420.365 56.561 419.678 C 57.081 418.991 57.791 418.448 58.691 418.048 C 59.591 417.641 60.578 417.438 61.651 417.438 C 63.358 417.438 64.694 417.865 65.661 418.718 C 66.628 419.571 67.128 420.745 67.161 422.238 L 67.161 429.048 C 67.161 430.408 67.334 431.488 67.681 432.288 L 67.681 432.508 Z M 60.831 430.578 C 61.624 430.578 62.378 430.375 63.091 429.968 C 63.798 429.555 64.311 429.021 64.631 428.368 L 64.631 425.328 L 62.651 425.328 C 59.551 425.328 58.001 426.235 58.001 428.048 C 58.001 428.841 58.264 429.461 58.791 429.908 C 59.324 430.355 60.004 430.578 60.831 430.578 ZM 71.121 417.718 L 73.521 417.718 L 73.601 419.578 C 74.728 418.151 76.205 417.438 78.031 417.438 C 81.158 417.438 82.735 419.201 82.761 422.728 L 82.761 432.508 L 80.231 432.508 L 80.231 422.718 C 80.225 421.651 79.981 420.865 79.501 420.358 C 79.021 419.845 78.275 419.588 77.261 419.588 C 76.441 419.588 75.721 419.808 75.101 420.248 C 74.481 420.681 73.998 421.255 73.651 421.968 L 73.651 432.508 L 71.121 432.508 L 71.121 417.718 ZM 86.699 411.508 L 86.699 413.028 L 86.409 418.058 L 84.649 418.058 L 84.659 411.508 L 86.699 411.508 ZM 90.94 414.128 L 93.47 414.128 L 93.47 417.718 L 96.23 417.718 L 96.23 419.668 L 93.47 419.668 L 93.47 428.848 C 93.47 429.435 93.59 429.878 93.83 430.178 C 94.076 430.471 94.496 430.618 95.09 430.618 C 95.383 430.618 95.786 430.565 96.3 430.458 L 96.3 432.508 C 95.633 432.688 94.983 432.778 94.35 432.778 C 93.223 432.778 92.373 432.438 91.8 431.758 C 91.226 431.071 90.94 430.101 90.94 428.848 L 90.94 419.668 L 88.24 419.668 L 88.24 417.718 L 90.94 417.718 L 90.94 414.128 ZM 117.898 432.508 L 115.248 432.508 C 115.101 432.215 114.981 431.695 114.888 430.948 C 113.714 432.168 112.311 432.778 110.678 432.778 C 109.218 432.778 108.021 432.368 107.088 431.548 C 106.154 430.721 105.688 429.675 105.688 428.408 C 105.688 426.868 106.274 425.671 107.448 424.818 C 108.614 423.965 110.261 423.538 112.388 423.538 L 114.848 423.538 L 114.848 422.378 C 114.848 421.491 114.584 420.788 114.058 420.268 C 113.524 419.741 112.744 419.478 111.718 419.478 C 110.818 419.478 110.061 419.705 109.448 420.158 C 108.834 420.618 108.528 421.171 108.528 421.818 L 105.988 421.818 C 105.988 421.078 106.251 420.365 106.778 419.678 C 107.298 418.991 108.008 418.448 108.908 418.048 C 109.808 417.641 110.794 417.438 111.868 417.438 C 113.574 417.438 114.911 417.865 115.878 418.718 C 116.844 419.571 117.344 420.745 117.378 422.238 L 117.378 429.048 C 117.378 430.408 117.551 431.488 117.898 432.288 L 117.898 432.508 Z M 111.048 430.578 C 111.841 430.578 112.594 430.375 113.308 429.968 C 114.014 429.555 114.528 429.021 114.848 428.368 L 114.848 425.328 L 112.868 425.328 C 109.768 425.328 108.218 426.235 108.218 428.048 C 108.218 428.841 108.481 429.461 109.008 429.908 C 109.541 430.355 110.221 430.578 111.048 430.578 ZM 127.278 430.718 C 128.178 430.718 128.965 430.445 129.638 429.898 C 130.312 429.351 130.685 428.668 130.758 427.848 L 133.158 427.848 C 133.112 428.695 132.818 429.501 132.278 430.268 C 131.738 431.035 131.022 431.645 130.128 432.098 C 129.228 432.551 128.278 432.778 127.278 432.778 C 125.265 432.778 123.662 432.108 122.468 430.768 C 121.282 429.421 120.688 427.581 120.688 425.248 L 120.688 424.828 C 120.688 423.388 120.952 422.105 121.478 420.978 C 122.005 419.858 122.765 418.988 123.758 418.368 C 124.745 417.748 125.912 417.438 127.258 417.438 C 128.918 417.438 130.298 417.935 131.398 418.928 C 132.498 419.921 133.085 421.211 133.158 422.798 L 130.758 422.798 C 130.685 421.845 130.325 421.058 129.678 420.438 C 129.025 419.825 128.218 419.518 127.258 419.518 C 125.978 419.518 124.985 419.981 124.278 420.908 C 123.572 421.835 123.218 423.171 123.218 424.918 L 123.218 425.398 C 123.218 427.105 123.568 428.418 124.268 429.338 C 124.968 430.258 125.972 430.718 127.278 430.718 ZM 141.935 430.718 C 142.835 430.718 143.621 430.445 144.295 429.898 C 144.968 429.351 145.341 428.668 145.415 427.848 L 147.815 427.848 C 147.768 428.695 147.475 429.501 146.935 430.268 C 146.395 431.035 145.678 431.645 144.785 432.098 C 143.885 432.551 142.935 432.778 141.935 432.778 C 139.921 432.778 138.318 432.108 137.125 430.768 C 135.938 429.421 135.345 427.581 135.345 425.248 L 135.345 424.828 C 135.345 423.388 135.608 422.105 136.135 420.978 C 136.661 419.858 137.421 418.988 138.415 418.368 C 139.401 417.748 140.568 417.438 141.915 417.438 C 143.575 417.438 144.955 417.935 146.055 418.928 C 147.155 419.921 147.741 421.211 147.815 422.798 L 145.415 422.798 C 145.341 421.845 144.981 421.058 144.335 420.438 C 143.681 419.825 142.875 419.518 141.915 419.518 C 140.635 419.518 139.641 419.981 138.935 420.908 C 138.228 421.835 137.875 423.171 137.875 424.918 L 137.875 425.398 C 137.875 427.105 138.225 428.418 138.925 429.338 C 139.625 430.258 140.628 430.718 141.935 430.718 ZM 156.791 432.778 C 154.784 432.778 153.154 432.121 151.901 430.808 C 150.641 429.488 150.011 427.725 150.011 425.518 L 150.011 425.058 C 150.011 423.591 150.291 422.281 150.851 421.128 C 151.411 419.975 152.194 419.071 153.201 418.418 C 154.207 417.765 155.301 417.438 156.481 417.438 C 158.401 417.438 159.894 418.071 160.961 419.338 C 162.027 420.605 162.561 422.421 162.561 424.788 L 162.561 425.838 L 152.541 425.838 C 152.581 427.298 153.007 428.475 153.821 429.368 C 154.634 430.268 155.671 430.718 156.931 430.718 C 157.824 430.718 158.581 430.535 159.201 430.168 C 159.821 429.808 160.364 429.325 160.831 428.718 L 162.371 429.928 C 161.131 431.828 159.271 432.778 156.791 432.778 Z M 156.481 419.518 C 155.461 419.518 154.604 419.891 153.911 420.638 C 153.217 421.378 152.787 422.418 152.621 423.758 L 160.031 423.758 L 160.031 423.568 C 159.957 422.281 159.611 421.285 158.991 420.578 C 158.371 419.871 157.534 419.518 156.481 419.518 ZM 174.105 428.588 C 174.105 427.901 173.845 427.368 173.325 426.988 C 172.811 426.615 171.915 426.291 170.635 426.018 C 169.355 425.745 168.338 425.415 167.585 425.028 C 166.831 424.648 166.275 424.191 165.915 423.658 C 165.555 423.131 165.375 422.505 165.375 421.778 C 165.375 420.565 165.888 419.538 166.915 418.698 C 167.941 417.858 169.251 417.438 170.845 417.438 C 172.525 417.438 173.885 417.871 174.925 418.738 C 175.971 419.605 176.495 420.711 176.495 422.058 L 173.955 422.058 C 173.955 421.371 173.661 420.775 173.075 420.268 C 172.481 419.768 171.738 419.518 170.845 419.518 C 169.925 419.518 169.205 419.718 168.685 420.118 C 168.165 420.518 167.905 421.045 167.905 421.698 C 167.905 422.305 168.148 422.765 168.635 423.078 C 169.115 423.385 169.988 423.681 171.255 423.968 C 172.515 424.248 173.538 424.585 174.325 424.978 C 175.105 425.365 175.685 425.835 176.065 426.388 C 176.445 426.941 176.635 427.615 176.635 428.408 C 176.635 429.728 176.105 430.788 175.045 431.588 C 173.985 432.381 172.615 432.778 170.935 432.778 C 169.748 432.778 168.698 432.568 167.785 432.148 C 166.871 431.735 166.158 431.151 165.645 430.398 C 165.131 429.645 164.875 428.831 164.875 427.958 L 167.405 427.958 C 167.451 428.805 167.791 429.475 168.425 429.968 C 169.058 430.468 169.895 430.718 170.935 430.718 C 171.888 430.718 172.655 430.525 173.235 430.138 C 173.815 429.751 174.105 429.235 174.105 428.588 ZM 188.542 428.588 C 188.542 427.901 188.282 427.368 187.762 426.988 C 187.249 426.615 186.352 426.291 185.072 426.018 C 183.792 425.745 182.776 425.415 182.022 425.028 C 181.269 424.648 180.712 424.191 180.352 423.658 C 179.992 423.131 179.812 422.505 179.812 421.778 C 179.812 420.565 180.326 419.538 181.352 418.698 C 182.379 417.858 183.689 417.438 185.282 417.438 C 186.962 417.438 188.322 417.871 189.362 418.738 C 190.409 419.605 190.932 420.711 190.932 422.058 L 188.392 422.058 C 188.392 421.371 188.099 420.775 187.512 420.268 C 186.919 419.768 186.176 419.518 185.282 419.518 C 184.362 419.518 183.642 419.718 183.122 420.118 C 182.602 420.518 182.342 421.045 182.342 421.698 C 182.342 422.305 182.586 422.765 183.072 423.078 C 183.552 423.385 184.426 423.681 185.692 423.968 C 186.952 424.248 187.976 424.585 188.762 424.978 C 189.542 425.365 190.122 425.835 190.502 426.388 C 190.882 426.941 191.072 427.615 191.072 428.408 C 191.072 429.728 190.542 430.788 189.482 431.588 C 188.422 432.381 187.052 432.778 185.372 432.778 C 184.186 432.778 183.136 432.568 182.222 432.148 C 181.309 431.735 180.596 431.151 180.082 430.398 C 179.569 429.645 179.312 428.831 179.312 427.958 L 181.842 427.958 C 181.889 428.805 182.229 429.475 182.862 429.968 C 183.496 430.468 184.332 430.718 185.372 430.718 C 186.326 430.718 187.092 430.525 187.672 430.138 C 188.252 429.751 188.542 429.235 188.542 428.588 Z" transform="matrix(1, 0, 0, 1, 220.984375, -46.010169982910156)" style="fill: rgb(113, 113, 113); white-space: pre;"/>
  <path d="M -104.896 442.128 L -102.366 442.128 L -102.366 445.718 L -99.606 445.718 L -99.606 447.668 L -102.366 447.668 L -102.366 456.848 C -102.366 457.435 -102.246 457.878 -102.006 458.178 C -101.76 458.471 -101.34 458.618 -100.746 458.618 C -100.453 458.618 -100.05 458.565 -99.536 458.458 L -99.536 460.508 C -100.203 460.688 -100.853 460.778 -101.486 460.778 C -102.613 460.778 -103.463 460.438 -104.036 459.758 C -104.61 459.071 -104.896 458.101 -104.896 456.848 L -104.896 447.668 L -107.596 447.668 L -107.596 445.718 L -104.896 445.718 L -104.896 442.128 ZM -94.13 439.508 L -94.13 447.508 C -93.003 446.128 -91.543 445.438 -89.75 445.438 C -86.623 445.438 -85.046 447.201 -85.02 450.728 L -85.02 460.508 L -87.55 460.508 L -87.55 450.718 C -87.556 449.651 -87.8 448.865 -88.28 448.358 C -88.76 447.845 -89.506 447.588 -90.52 447.588 C -91.34 447.588 -92.06 447.808 -92.68 448.248 C -93.3 448.681 -93.783 449.255 -94.13 449.968 L -94.13 460.508 L -96.66 460.508 L -96.66 439.508 L -94.13 439.508 ZM -78.488 445.718 L -78.488 460.508 L -81.018 460.508 L -81.018 445.718 L -78.488 445.718 Z M -81.218 441.788 C -81.218 441.381 -81.095 441.035 -80.848 440.748 C -80.595 440.468 -80.221 440.328 -79.728 440.328 C -79.235 440.328 -78.861 440.468 -78.608 440.748 C -78.355 441.035 -78.228 441.381 -78.228 441.788 C -78.228 442.201 -78.355 442.545 -78.608 442.818 C -78.861 443.091 -79.235 443.228 -79.728 443.228 C -80.221 443.228 -80.595 443.091 -80.848 442.818 C -81.095 442.545 -81.218 442.201 -81.218 441.788 ZM -65.823 456.588 C -65.823 455.901 -66.083 455.368 -66.603 454.988 C -67.116 454.615 -68.013 454.291 -69.293 454.018 C -70.573 453.745 -71.59 453.415 -72.343 453.028 C -73.096 452.648 -73.653 452.191 -74.013 451.658 C -74.373 451.131 -74.553 450.505 -74.553 449.778 C -74.553 448.565 -74.04 447.538 -73.013 446.698 C -71.986 445.858 -70.676 445.438 -69.083 445.438 C -67.403 445.438 -66.043 445.871 -65.003 446.738 C -63.956 447.605 -63.433 448.711 -63.433 450.058 L -65.973 450.058 C -65.973 449.371 -66.266 448.775 -66.853 448.268 C -67.446 447.768 -68.19 447.518 -69.083 447.518 C -70.003 447.518 -70.723 447.718 -71.243 448.118 C -71.763 448.518 -72.023 449.045 -72.023 449.698 C -72.023 450.305 -71.78 450.765 -71.293 451.078 C -70.813 451.385 -69.94 451.681 -68.673 451.968 C -67.413 452.248 -66.39 452.585 -65.603 452.978 C -64.823 453.365 -64.243 453.835 -63.863 454.388 C -63.483 454.941 -63.293 455.615 -63.293 456.408 C -63.293 457.728 -63.823 458.788 -64.883 459.588 C -65.943 460.381 -67.313 460.778 -68.993 460.778 C -70.18 460.778 -71.23 460.568 -72.143 460.148 C -73.056 459.735 -73.77 459.151 -74.283 458.398 C -74.796 457.645 -75.053 456.831 -75.053 455.958 L -72.523 455.958 C -72.476 456.805 -72.136 457.475 -71.503 457.968 C -70.87 458.468 -70.033 458.718 -68.993 458.718 C -68.04 458.718 -67.273 458.525 -66.693 458.138 C -66.113 457.751 -65.823 457.235 -65.823 456.588 ZM -44.454 456.588 C -44.454 455.901 -44.714 455.368 -45.234 454.988 C -45.747 454.615 -46.644 454.291 -47.924 454.018 C -49.204 453.745 -50.22 453.415 -50.974 453.028 C -51.727 452.648 -52.284 452.191 -52.644 451.658 C -53.004 451.131 -53.184 450.505 -53.184 449.778 C -53.184 448.565 -52.67 447.538 -51.644 446.698 C -50.617 445.858 -49.307 445.438 -47.714 445.438 C -46.034 445.438 -44.674 445.871 -43.634 446.738 C -42.587 447.605 -42.064 448.711 -42.064 450.058 L -44.604 450.058 C -44.604 449.371 -44.897 448.775 -45.484 448.268 C -46.077 447.768 -46.82 447.518 -47.714 447.518 C -48.634 447.518 -49.354 447.718 -49.874 448.118 C -50.394 448.518 -50.654 449.045 -50.654 449.698 C -50.654 450.305 -50.41 450.765 -49.924 451.078 C -49.444 451.385 -48.57 451.681 -47.304 451.968 C -46.044 452.248 -45.02 452.585 -44.234 452.978 C -43.454 453.365 -42.874 453.835 -42.494 454.388 C -42.114 454.941 -41.924 455.615 -41.924 456.408 C -41.924 457.728 -42.454 458.788 -43.514 459.588 C -44.574 460.381 -45.944 460.778 -47.624 460.778 C -48.81 460.778 -49.86 460.568 -50.774 460.148 C -51.687 459.735 -52.4 459.151 -52.914 458.398 C -53.427 457.645 -53.684 456.831 -53.684 455.958 L -51.154 455.958 C -51.107 456.805 -50.767 457.475 -50.134 457.968 C -49.5 458.468 -48.664 458.718 -47.624 458.718 C -46.67 458.718 -45.904 458.525 -45.324 458.138 C -44.744 457.751 -44.454 457.235 -44.454 456.588 ZM -32.496 460.778 C -34.503 460.778 -36.133 460.121 -37.386 458.808 C -38.646 457.488 -39.276 455.725 -39.276 453.518 L -39.276 453.058 C -39.276 451.591 -38.996 450.281 -38.436 449.128 C -37.876 447.975 -37.093 447.071 -36.086 446.418 C -35.08 445.765 -33.986 445.438 -32.806 445.438 C -30.886 445.438 -29.393 446.071 -28.326 447.338 C -27.26 448.605 -26.726 450.421 -26.726 452.788 L -26.726 453.838 L -36.746 453.838 C -36.706 455.298 -36.28 456.475 -35.466 457.368 C -34.653 458.268 -33.616 458.718 -32.356 458.718 C -31.463 458.718 -30.706 458.535 -30.086 458.168 C -29.466 457.808 -28.923 457.325 -28.456 456.718 L -26.916 457.928 C -28.156 459.828 -30.016 460.778 -32.496 460.778 Z M -32.806 447.518 C -33.826 447.518 -34.683 447.891 -35.376 448.638 C -36.07 449.378 -36.5 450.418 -36.666 451.758 L -29.256 451.758 L -29.256 451.568 C -29.33 450.281 -29.676 449.285 -30.296 448.578 C -30.916 447.871 -31.753 447.518 -32.806 447.518 ZM -17.862 458.718 C -16.962 458.718 -16.176 458.445 -15.502 457.898 C -14.829 457.351 -14.456 456.668 -14.382 455.848 L -11.982 455.848 C -12.029 456.695 -12.322 457.501 -12.862 458.268 C -13.402 459.035 -14.119 459.645 -15.012 460.098 C -15.912 460.551 -16.862 460.778 -17.862 460.778 C -19.876 460.778 -21.479 460.108 -22.672 458.768 C -23.859 457.421 -24.452 455.581 -24.452 453.248 L -24.452 452.828 C -24.452 451.388 -24.189 450.105 -23.662 448.978 C -23.136 447.858 -22.376 446.988 -21.382 446.368 C -20.396 445.748 -19.229 445.438 -17.882 445.438 C -16.222 445.438 -14.842 445.935 -13.742 446.928 C -12.642 447.921 -12.056 449.211 -11.982 450.798 L -14.382 450.798 C -14.456 449.845 -14.816 449.058 -15.462 448.438 C -16.116 447.825 -16.922 447.518 -17.882 447.518 C -19.162 447.518 -20.156 447.981 -20.862 448.908 C -21.569 449.835 -21.922 451.171 -21.922 452.918 L -21.922 453.398 C -21.922 455.105 -21.572 456.418 -20.872 457.338 C -20.172 458.258 -19.169 458.718 -17.862 458.718 ZM -8.236 442.128 L -5.706 442.128 L -5.706 445.718 L -2.946 445.718 L -2.946 447.668 L -5.706 447.668 L -5.706 456.848 C -5.706 457.435 -5.586 457.878 -5.346 458.178 C -5.099 458.471 -4.679 458.618 -4.086 458.618 C -3.793 458.618 -3.389 458.565 -2.876 458.458 L -2.876 460.508 C -3.543 460.688 -4.193 460.778 -4.826 460.778 C -5.953 460.778 -6.803 460.438 -7.376 459.758 C -7.949 459.071 -8.236 458.101 -8.236 456.848 L -8.236 447.668 L -10.936 447.668 L -10.936 445.718 L -8.236 445.718 L -8.236 442.128 ZM 2.75 445.718 L 2.75 460.508 L 0.22 460.508 L 0.22 445.718 L 2.75 445.718 Z M 0.02 441.788 C 0.02 441.381 0.144 441.035 0.39 440.748 C 0.644 440.468 1.017 440.328 1.51 440.328 C 2.004 440.328 2.377 440.468 2.63 440.748 C 2.884 441.035 3.01 441.381 3.01 441.788 C 3.01 442.201 2.884 442.545 2.63 442.818 C 2.377 443.091 2.004 443.228 1.51 443.228 C 1.017 443.228 0.644 443.091 0.39 442.818 C 0.144 442.545 0.02 442.201 0.02 441.788 ZM 6.125 453.148 L 6.125 452.978 C 6.125 451.525 6.412 450.221 6.985 449.068 C 7.552 447.908 8.345 447.015 9.365 446.388 C 10.379 445.755 11.539 445.438 12.845 445.438 C 14.859 445.438 16.485 446.138 17.725 447.538 C 18.972 448.931 19.595 450.785 19.595 453.098 L 19.595 453.278 C 19.595 454.718 19.319 456.008 18.765 457.148 C 18.219 458.295 17.432 459.188 16.405 459.828 C 15.379 460.461 14.199 460.778 12.865 460.778 C 10.865 460.778 9.242 460.081 7.995 458.688 C 6.749 457.295 6.125 455.448 6.125 453.148 Z M 8.675 453.278 C 8.675 454.918 9.055 456.235 9.815 457.228 C 10.575 458.221 11.592 458.718 12.865 458.718 C 14.152 458.718 15.175 458.215 15.935 457.208 C 16.689 456.201 17.065 454.791 17.065 452.978 C 17.065 451.351 16.682 450.035 15.915 449.028 C 15.142 448.021 14.119 447.518 12.845 447.518 C 11.592 447.518 10.585 448.015 9.825 449.008 C 9.059 450.001 8.675 451.425 8.675 453.278 ZM 22.764 445.718 L 25.164 445.718 L 25.244 447.578 C 26.371 446.151 27.847 445.438 29.674 445.438 C 32.801 445.438 34.377 447.201 34.404 450.728 L 34.404 460.508 L 31.874 460.508 L 31.874 450.718 C 31.867 449.651 31.624 448.865 31.144 448.358 C 30.664 447.845 29.917 447.588 28.904 447.588 C 28.084 447.588 27.364 447.808 26.744 448.248 C 26.124 448.681 25.641 449.255 25.294 449.968 L 25.294 460.508 L 22.764 460.508 L 22.764 445.718 ZM 52.295 445.628 L 52.295 447.988 C 51.915 447.921 51.502 447.888 51.055 447.888 C 49.395 447.888 48.268 448.595 47.675 450.008 L 47.675 460.508 L 45.145 460.508 L 45.145 445.718 L 47.615 445.718 L 47.655 447.428 C 48.482 446.101 49.655 445.438 51.175 445.438 C 51.668 445.438 52.042 445.501 52.295 445.628 ZM 57.37 445.718 L 57.37 460.508 L 54.84 460.508 L 54.84 445.718 L 57.37 445.718 Z M 54.64 441.788 C 54.64 441.381 54.763 441.035 55.01 440.748 C 55.263 440.468 55.636 440.328 56.13 440.328 C 56.623 440.328 56.996 440.468 57.25 440.748 C 57.503 441.035 57.63 441.381 57.63 441.788 C 57.63 442.201 57.503 442.545 57.25 442.818 C 56.996 443.091 56.623 443.228 56.13 443.228 C 55.636 443.228 55.263 443.091 55.01 442.818 C 54.763 442.545 54.64 442.201 54.64 441.788 ZM 60.814 452.988 C 60.814 450.681 61.348 448.848 62.414 447.488 C 63.481 446.121 64.894 445.438 66.654 445.438 C 68.461 445.438 69.871 446.078 70.884 447.358 L 71.004 445.718 L 73.314 445.718 L 73.314 460.148 C 73.314 462.068 72.748 463.578 71.614 464.678 C 70.474 465.778 68.948 466.328 67.034 466.328 C 65.968 466.328 64.924 466.101 63.904 465.648 C 62.884 465.195 62.104 464.571 61.564 463.778 L 62.884 462.258 C 63.964 463.598 65.291 464.268 66.864 464.268 C 68.091 464.268 69.048 463.921 69.734 463.228 C 70.428 462.535 70.774 461.558 70.774 460.298 L 70.774 459.028 C 69.761 460.195 68.378 460.778 66.624 460.778 C 64.898 460.778 63.498 460.081 62.424 458.688 C 61.351 457.295 60.814 455.395 60.814 452.988 Z M 63.364 453.278 C 63.364 454.945 63.704 456.255 64.384 457.208 C 65.071 458.161 66.028 458.638 67.254 458.638 C 68.848 458.638 70.021 457.911 70.774 456.458 L 70.774 449.708 C 69.994 448.295 68.831 447.588 67.284 447.588 C 66.051 447.588 65.088 448.068 64.394 449.028 C 63.708 449.981 63.364 451.398 63.364 453.278 ZM 79.653 439.508 L 79.653 447.508 C 80.78 446.128 82.24 445.438 84.033 445.438 C 87.16 445.438 88.737 447.201 88.763 450.728 L 88.763 460.508 L 86.233 460.508 L 86.233 450.718 C 86.227 449.651 85.983 448.865 85.503 448.358 C 85.023 447.845 84.277 447.588 83.263 447.588 C 82.443 447.588 81.723 447.808 81.103 448.248 C 80.483 448.681 80 449.255 79.653 449.968 L 79.653 460.508 L 77.123 460.508 L 77.123 439.508 L 79.653 439.508 ZM 93.455 442.128 L 95.985 442.128 L 95.985 445.718 L 98.745 445.718 L 98.745 447.668 L 95.985 447.668 L 95.985 456.848 C 95.985 457.435 96.105 457.878 96.345 458.178 C 96.592 458.471 97.012 458.618 97.605 458.618 C 97.899 458.618 98.302 458.565 98.815 458.458 L 98.815 460.508 C 98.149 460.688 97.499 460.778 96.865 460.778 C 95.739 460.778 94.889 460.438 94.315 459.758 C 93.742 459.071 93.455 458.101 93.455 456.848 L 93.455 447.668 L 90.755 447.668 L 90.755 445.718 L 93.455 445.718 L 93.455 442.128 ZM 108.623 445.718 L 111.023 445.718 L 111.103 447.578 C 112.23 446.151 113.707 445.438 115.533 445.438 C 118.66 445.438 120.237 447.201 120.263 450.728 L 120.263 460.508 L 117.733 460.508 L 117.733 450.718 C 117.727 449.651 117.483 448.865 117.003 448.358 C 116.523 447.845 115.777 447.588 114.763 447.588 C 113.943 447.588 113.223 447.808 112.603 448.248 C 111.983 448.681 111.5 449.255 111.153 449.968 L 111.153 460.508 L 108.623 460.508 L 108.623 445.718 ZM 123.403 453.148 L 123.403 452.978 C 123.403 451.525 123.689 450.221 124.263 449.068 C 124.829 447.908 125.623 447.015 126.643 446.388 C 127.656 445.755 128.816 445.438 130.123 445.438 C 132.136 445.438 133.763 446.138 135.003 447.538 C 136.249 448.931 136.873 450.785 136.873 453.098 L 136.873 453.278 C 136.873 454.718 136.596 456.008 136.043 457.148 C 135.496 458.295 134.709 459.188 133.683 459.828 C 132.656 460.461 131.476 460.778 130.143 460.778 C 128.143 460.778 126.519 460.081 125.273 458.688 C 124.026 457.295 123.403 455.448 123.403 453.148 Z M 125.953 453.278 C 125.953 454.918 126.333 456.235 127.093 457.228 C 127.853 458.221 128.869 458.718 130.143 458.718 C 131.429 458.718 132.453 458.215 133.213 457.208 C 133.966 456.201 134.343 454.791 134.343 452.978 C 134.343 451.351 133.959 450.035 133.193 449.028 C 132.419 448.021 131.396 447.518 130.123 447.518 C 128.869 447.518 127.863 448.015 127.103 449.008 C 126.336 450.001 125.953 451.425 125.953 453.278 ZM 149.631 445.718 L 153.141 457.018 L 155.991 445.718 L 158.511 445.718 L 154.211 460.508 L 152.161 460.508 L 148.561 449.298 L 145.061 460.508 L 143.011 460.508 L 138.721 445.718 L 141.231 445.718 L 144.151 456.788 L 147.591 445.718 L 149.631 445.718 ZM 159.447 459.178 C 159.447 458.745 159.577 458.381 159.837 458.088 C 160.097 457.795 160.487 457.648 161.007 457.648 C 161.527 457.648 161.92 457.795 162.187 458.088 C 162.454 458.381 162.587 458.745 162.587 459.178 C 162.587 459.598 162.454 459.951 162.187 460.238 C 161.92 460.518 161.527 460.658 161.007 460.658 C 160.487 460.658 160.097 460.518 159.837 460.238 C 159.577 459.951 159.447 459.598 159.447 459.178 Z" transform="matrix(1, 0, 0, 1, 220.984375, -46.010169982910156)" style="fill: rgb(113, 113, 113); white-space: pre;"/>
</svg>