<?xml version="1.0" encoding="utf-8"?>
<svg viewBox="0 0 500 500" width="500" height="500" xmlns="http://www.w3.org/2000/svg" xmlns:bx="https://boxy-svg.com">
  <defs>
    <filter id="drop-shadow-filter-0" x="-500%" y="-500%" width="1000%" height="1000%" bx:preset="drop-shadow 1 0 0 20 0.5 rgba(0,0,0,0.3)">
      <feGaussianBlur in="SourceAlpha" stdDeviation="20"/>
      <feOffset dx="0" dy="0"/>
      <feComponentTransfer result="offsetblur">
        <feFuncA id="spread-ctrl" type="linear" slope="1"/>
      </feComponentTransfer>
      <feFlood flood-color="rgba(0,0,0,0.3)" x="10" y="10"/>
      <feComposite in2="offsetblur" operator="in"/>
      <feMerge>
        <feMergeNode/>
        <feMergeNode in="SourceGraphic"/>
      </feMerge>
    </filter>
  </defs>
  <g style="" transform="matrix(1.908026, 0, 0, 1.908026, -227.006546, -228.40773)">
    <circle style="fill: rgb(255, 255, 255); filter: url(#drop-shadow-filter-0);" cx="250" cy="250" r="100.851"/>
    <path d="M 291.307 315.873 C 288.747 317.226 283.784 317.453 276.417 316.553 C 269.044 315.653 263.327 315.353 259.267 315.653 C 256.26 315.8 253.894 315.95 252.167 316.103 C 250.434 316.25 249.267 316.4 248.667 316.553 C 248.067 316.553 247.99 316.553 248.437 316.553 C 246.337 316.553 242.277 316.703 236.257 317.003 C 227.237 317.456 222.727 315.05 222.727 309.783 C 222.727 307.23 224.004 305.2 226.557 303.693 C 229.117 302.186 231.75 301.433 234.457 301.433 C 235.657 301.433 236.71 301.586 237.617 301.893 L 251.377 301.893 C 252.277 301.893 253.554 301.666 255.207 301.213 C 255.507 297.153 255.284 290.873 254.537 282.373 C 253.784 273.873 253.407 267.443 253.407 263.083 C 253.254 260.53 252.577 258.426 251.377 256.773 C 247.464 257.073 239.794 258.276 228.367 260.383 C 218.74 262.036 211.144 262.863 205.577 262.863 C 203.17 262.863 200.69 262.636 198.137 262.183 C 196.33 261.883 193.997 259.403 191.137 254.743 C 191.437 253.383 192.264 251.05 193.617 247.743 L 193.617 247.063 C 194.07 247.063 194.674 246.763 195.427 246.163 C 201.44 238.043 212.72 222.103 229.267 198.343 C 232.574 193.53 235.054 189.693 236.707 186.833 C 239.414 182.02 243.174 178.636 247.987 176.683 C 249.04 176.383 250.244 176.456 251.597 176.903 C 252.504 177.356 253.407 177.733 254.307 178.033 C 256.56 178.486 257.84 178.713 258.147 178.713 C 260.7 179.466 262.277 180.97 262.877 183.223 C 263.484 184.423 263.86 188.936 264.007 196.763 C 264.007 201.423 264.007 206.16 264.007 210.973 C 264.16 216.54 264.764 226.766 265.817 241.653 C 267.917 241.806 270.924 241.62 274.837 241.093 C 278.75 240.566 281.534 240.303 283.187 240.303 C 288.747 240.303 291.527 242.406 291.527 246.613 C 291.527 247.52 291.377 248.573 291.077 249.773 C 288.37 253.086 284.537 254.743 279.577 254.743 C 278.824 254.743 277.657 254.666 276.077 254.513 C 274.497 254.36 273.33 254.283 272.577 254.283 C 270.777 254.283 269.2 254.51 267.847 254.963 C 267.847 261.583 268.147 269.48 268.747 278.653 C 269.5 290.386 270.404 297.906 271.457 301.213 C 276.57 301.06 282.584 301.133 289.497 301.433 C 293.257 301.586 295.137 304.37 295.137 309.783 C 295.137 312.49 293.86 314.52 291.307 315.873 Z M 233.097 245.713 L 251.147 243.003 C 249.794 230.523 248.967 216.99 248.667 202.403 C 248.367 202.403 248.14 202.326 247.987 202.173 C 248.44 201.72 248.667 201.343 248.667 201.043 C 248.667 200.896 248.44 200.446 247.987 199.693 C 247.687 199.093 247.687 198.566 247.987 198.113 C 248.44 197.513 248.667 196.76 248.667 195.853 C 246.56 197.96 244.38 200.893 242.127 204.653 C 238.967 209.766 237.01 212.85 236.257 213.903 C 228.437 224.73 221.217 235.333 214.597 245.713 C 214.45 246.313 214.604 246.84 215.057 247.293 C 220.017 247.293 226.03 246.766 233.097 245.713 Z" transform="matrix(1, 0, 0, 1, 0, 0)" style="fill: rgb(76, 68, 219);"/>
  </g>
</svg>