<?xml version="1.0" encoding="utf-8"?>
<svg viewBox="0 0 500 500" width="500" height="500" xmlns="http://www.w3.org/2000/svg">
  <defs>
    <filter id="drop-shadow-filter-0" x="-500%" y="-500%" width="1000%" height="1000%">
      <feGaussianBlur in="SourceAlpha" stdDeviation="20"/>
      <feOffset dx="0" dy="0"/>
      <feComponentTransfer result="offsetblur">
        <feFuncA id="spread-ctrl" type="linear" slope="1"/>
      </feComponentTransfer>
      <feFlood flood-color="rgba(0,0,0,0.51)" x="10" y="10"/>
      <feComposite in2="offsetblur" operator="in"/>
      <feMerge>
        <feMergeNode/>
        <feMergeNode in="SourceGraphic"/>
      </feMerge>
    </filter>
  </defs>
  <circle style="fill: rgb(255, 255, 255); filter: url(#drop-shadow-filter-0);" cx="250" cy="250" r="203.525"/>
  <g id="svgg" transform="matrix(0.930575, 0, 0, 0.930575, 63.920925, 63.884975)" style="">
    <path id="path0" d="M235.400 51.444 C 230.389 52.243,225.101 53.952,222.200 55.709 C 218.797 57.770,214.681 60.646,214.515 61.077 C 214.245 61.781,212.430 61.736,210.169 60.969 C 202.637 58.412,184.731 57.789,174.400 59.726 C 166.145 61.273,157.082 64.601,151.800 68.024 C 151.140 68.452,150.053 69.058,149.384 69.371 C 148.716 69.684,147.726 70.363,147.184 70.880 C 146.643 71.396,145.395 72.355,144.411 73.010 C 141.263 75.105,135.433 81.197,133.703 84.200 C 130.910 89.050,126.400 98.745,126.400 99.902 C 126.400 100.126,126.131 100.824,125.802 101.454 C 125.474 102.084,125.204 102.879,125.202 103.220 C 125.201 103.561,125.030 104.011,124.823 104.220 C 124.616 104.429,124.271 105.320,124.058 106.200 C 123.845 107.080,123.479 108.340,123.246 109.000 C 123.012 109.660,122.530 111.280,122.173 112.600 C 121.817 113.920,121.194 116.170,120.790 117.600 C 120.385 119.030,119.853 121.100,119.609 122.200 C 119.364 123.300,118.903 125.370,118.585 126.800 C 118.266 128.230,117.821 130.480,117.595 131.800 C 117.370 133.120,116.926 135.460,116.609 137.000 C 114.083 149.287,113.497 167.652,115.404 174.800 C 115.726 176.010,115.993 177.407,115.995 177.905 C 116.001 178.944,118.520 187.606,119.339 189.400 C 119.640 190.060,120.272 191.430,120.743 192.444 C 121.851 194.828,121.825 195.264,120.500 196.396 C 112.804 202.974,107.791 210.360,105.971 217.800 C 105.541 219.560,105.021 221.540,104.816 222.200 C 104.580 222.960,104.605 225.526,104.885 229.200 C 105.364 235.483,105.478 249.076,105.204 267.400 C 104.710 300.388,105.348 315.307,107.462 320.260 C 107.758 320.954,108.000 321.696,108.000 321.910 C 108.000 322.308,109.152 325.111,110.340 327.600 C 118.137 343.946,140.078 353.099,157.302 347.190 C 158.567 346.755,159.827 346.399,160.102 346.398 C 160.562 346.396,163.114 345.150,167.608 342.733 C 172.585 340.057,178.875 334.101,182.533 328.600 C 185.982 323.413,185.384 323.885,188.150 324.173 C 191.634 324.535,195.348 324.506,202.000 324.061 C 207.469 323.696,208.931 323.461,213.800 322.161 C 217.874 321.073,221.044 320.295,222.600 320.000 C 224.100 319.716,227.318 318.933,231.000 317.956 C 231.880 317.723,233.500 317.205,234.600 316.805 C 235.700 316.406,236.960 315.986,237.400 315.873 C 238.722 315.532,244.913 313.249,246.200 312.628 C 246.860 312.310,248.255 311.678,249.300 311.225 C 252.176 309.976,254.468 308.832,255.800 307.980 C 256.460 307.557,257.379 307.044,257.842 306.838 C 267.686 302.465,283.935 286.419,287.852 277.200 C 287.993 276.870,288.713 275.330,289.454 273.777 C 290.194 272.225,290.800 270.686,290.800 270.357 C 290.800 270.029,290.981 269.579,291.203 269.357 C 291.612 268.948,292.156 267.127,293.581 261.400 C 295.646 253.101,296.518 240.521,295.463 234.261 C 295.124 232.247,294.737 229.635,294.604 228.455 C 294.341 226.134,293.524 222.576,292.525 219.400 C 291.197 215.178,290.263 212.585,289.938 212.220 C 289.752 212.011,289.600 211.580,289.600 211.262 C 289.600 210.426,283.571 198.400,283.152 198.400 C 282.958 198.400,282.800 198.195,282.800 197.945 C 282.800 197.286,279.725 192.727,276.655 188.835 C 273.642 185.016,273.644 185.025,275.000 182.325 C 275.550 181.230,276.000 180.028,276.000 179.653 C 276.000 179.279,276.386 177.899,276.857 176.586 C 277.655 174.365,277.710 173.510,277.647 164.200 C 277.580 154.283,278.198 143.591,279.392 134.000 C 281.610 116.192,282.205 89.324,280.548 81.804 C 278.047 70.449,272.403 63.062,260.600 55.694 C 259.720 55.145,259.851 55.202,255.600 53.528 C 250.467 51.507,241.077 50.538,235.400 51.444 M246.364 82.104 C 249.873 83.886,250.651 85.530,251.521 93.000 C 251.967 96.839,251.069 116.617,250.036 125.694 C 249.804 127.732,249.432 131.380,249.211 133.800 C 248.989 136.220,248.619 139.910,248.389 142.000 C 248.158 144.090,247.903 151.290,247.822 158.000 C 247.659 171.409,247.535 172.174,245.201 174.138 C 240.142 178.394,232.341 179.121,228.523 175.691 C 226.420 173.800,226.336 173.507,224.413 161.400 C 223.982 158.684,223.694 157.233,222.589 152.200 C 221.252 146.110,219.836 141.834,218.006 138.361 C 217.821 138.009,216.921 135.939,216.007 133.761 C 215.094 131.582,214.088 129.233,213.773 128.540 C 213.458 127.846,213.200 127.158,213.200 127.009 C 213.200 126.431,209.182 118.708,207.791 116.613 C 201.061 106.474,187.406 102.847,180.676 109.410 C 179.227 110.824,176.000 115.407,176.000 116.052 C 176.000 116.287,175.758 117.046,175.462 117.740 C 175.166 118.433,174.606 120.080,174.218 121.400 C 173.829 122.720,173.198 124.790,172.815 126.000 C 172.432 127.210,171.838 129.100,171.496 130.200 C 170.676 132.829,168.203 143.446,167.582 147.000 C 166.836 151.273,166.644 158.654,167.214 161.200 C 167.485 162.410,167.845 164.390,168.015 165.600 C 168.954 172.303,172.813 179.280,176.709 181.318 C 179.640 182.852,185.911 185.080,188.790 185.610 C 194.553 186.671,203.114 187.801,209.800 188.383 C 217.532 189.057,225.289 190.412,227.265 191.434 C 227.867 191.745,228.684 192.006,229.080 192.014 C 229.476 192.021,230.520 192.375,231.400 192.800 C 232.280 193.225,233.279 193.579,233.620 193.586 C 233.961 193.594,234.411 193.763,234.620 193.963 C 234.829 194.162,235.639 194.498,236.419 194.708 C 240.132 195.709,250.759 204.070,253.563 208.196 C 254.163 209.078,255.460 210.974,256.447 212.408 C 257.433 213.843,258.651 215.913,259.154 217.008 C 259.657 218.104,260.683 220.306,261.434 221.901 C 262.186 223.497,262.800 225.141,262.800 225.555 C 262.800 225.970,263.069 226.824,263.398 227.454 C 263.726 228.084,263.996 229.072,263.998 229.650 C 263.999 230.227,264.301 231.487,264.669 232.450 C 265.534 234.711,265.681 248.097,264.882 251.800 C 264.008 255.850,262.324 260.893,261.211 262.793 C 260.628 263.787,260.029 264.870,259.878 265.200 C 259.313 266.442,258.523 267.483,255.858 270.497 C 250.967 276.030,244.147 280.746,235.500 284.576 C 231.197 286.482,230.383 286.800,229.817 286.800 C 229.471 286.800,228.877 286.980,228.495 287.199 C 227.485 287.779,221.625 289.600,220.768 289.600 C 220.366 289.600,219.624 289.764,219.119 289.965 C 218.613 290.166,216.940 290.631,215.400 290.999 C 213.860 291.367,211.565 291.922,210.300 292.234 C 204.485 293.665,202.936 293.946,198.518 294.368 C 187.445 295.425,176.563 292.556,166.769 285.998 C 159.359 281.037,156.845 284.968,159.093 298.000 C 159.226 298.770,159.308 299.524,159.276 299.675 C 159.070 300.632,159.170 302.471,159.521 304.181 C 160.148 307.240,157.710 313.407,155.508 314.336 C 155.331 314.410,154.964 314.680,154.693 314.936 C 152.226 317.260,149.523 318.371,145.626 318.664 C 137.011 319.311,132.860 308.357,135.375 291.611 C 135.867 288.330,135.867 287.528,135.372 285.627 C 134.662 282.903,134.601 260.500,135.275 250.400 C 135.819 242.254,135.813 240.212,135.228 234.400 C 134.328 225.457,134.585 224.161,137.855 221.143 C 140.879 218.351,143.422 217.455,148.400 217.426 C 157.292 217.375,158.950 219.225,160.004 230.367 C 160.241 232.879,160.519 235.068,160.620 235.233 C 160.722 235.397,161.058 236.762,161.368 238.266 C 162.491 243.717,163.394 246.502,165.758 251.800 C 166.347 253.120,167.003 254.470,167.216 254.800 C 167.428 255.130,167.761 255.760,167.956 256.200 C 168.525 257.488,172.762 263.259,174.416 265.000 C 181.399 272.351,185.028 274.853,190.705 276.232 C 196.185 277.563,205.444 277.101,211.391 275.200 C 217.616 273.210,221.679 271.781,222.705 271.221 C 223.087 271.013,224.750 270.445,226.400 269.961 C 237.370 266.737,243.229 258.789,244.385 245.565 C 244.627 242.796,244.734 240.276,244.624 239.965 C 244.513 239.654,244.243 237.922,244.024 236.116 C 243.805 234.309,243.457 232.509,243.249 232.116 C 243.042 231.722,242.396 230.241,241.815 228.825 C 239.900 224.161,234.987 218.409,230.290 215.334 C 227.080 213.232,222.503 210.800,221.757 210.800 C 221.465 210.800,220.636 210.543,219.914 210.229 C 215.403 208.268,207.953 207.072,191.000 205.586 C 188.360 205.355,184.940 204.904,183.400 204.583 C 181.860 204.263,180.060 203.999,179.400 203.998 C 178.740 203.996,177.684 203.726,177.054 203.398 C 176.424 203.069,175.683 202.800,175.406 202.800 C 173.196 202.800,165.655 199.266,160.600 195.861 C 150.077 188.773,143.974 175.777,144.013 160.537 C 144.026 155.422,144.219 153.449,145.373 146.600 C 145.706 144.620,146.183 141.560,146.433 139.800 C 146.682 138.040,147.137 135.874,147.443 134.987 C 147.749 134.099,148.000 133.035,148.000 132.622 C 148.000 132.208,148.271 130.954,148.601 129.835 C 148.932 128.716,149.640 126.000,150.174 123.800 C 150.708 121.600,151.329 119.260,151.554 118.600 C 152.265 116.509,154.877 109.017,155.039 108.600 C 155.125 108.380,155.356 107.930,155.553 107.600 C 155.750 107.270,156.606 105.427,157.456 103.503 C 159.491 98.895,162.569 96.137,169.600 92.621 C 172.033 91.405,173.496 90.833,174.800 90.589 C 175.570 90.445,176.920 90.097,177.800 89.816 C 182.547 88.300,194.658 88.187,200.400 89.606 C 204.420 90.599,205.643 91.007,208.315 92.247 C 209.919 92.991,211.333 93.600,211.457 93.600 C 211.685 93.600,213.105 94.532,217.200 97.370 C 218.410 98.209,220.787 100.314,222.483 102.047 C 225.276 104.903,225.709 105.199,227.083 105.186 C 230.368 105.154,232.571 101.450,231.405 97.919 C 227.845 87.137,237.070 77.384,246.364 82.104 " stroke="none" fill-rule="evenodd" fill="#fcac39"/>
    <path id="path1" d="M228.800 17.400 C 228.800 17.886,228.156 18.000,225.400 18.000 C 222.644 18.000,222.000 18.114,222.000 18.600 C 222.000 19.053,221.511 19.200,220.000 19.200 C 218.267 19.200,218.000 19.307,218.000 20.000 C 218.000 20.693,217.733 20.800,216.000 20.800 C 214.489 20.800,214.000 20.947,214.000 21.400 C 214.000 21.853,213.511 22.000,212.000 22.000 C 210.489 22.000,210.000 22.147,210.000 22.600 C 210.000 22.934,209.644 23.200,209.196 23.200 C 208.754 23.200,208.084 23.560,207.707 24.000 C 207.089 24.722,206.527 24.800,201.958 24.800 C 197.230 24.800,196.879 24.747,196.684 24.000 C 196.316 22.593,182.000 22.830,182.000 24.243 C 182.000 24.694,180.862 24.800,176.000 24.800 C 170.933 24.800,170.000 24.893,170.000 25.400 C 170.000 25.891,169.310 26.000,166.187 26.000 C 163.168 26.000,162.327 26.125,162.145 26.600 C 161.984 27.018,161.332 27.200,159.990 27.200 C 157.691 27.200,156.800 27.491,156.800 28.243 C 156.800 28.645,156.243 28.800,154.800 28.800 C 153.289 28.800,152.800 28.947,152.800 29.400 C 152.800 29.853,152.311 30.000,150.800 30.000 C 149.289 30.000,148.800 30.147,148.800 30.600 C 148.800 31.004,148.396 31.200,147.563 31.200 C 146.662 31.200,146.268 31.417,146.116 32.000 C 145.959 32.601,145.570 32.800,144.553 32.800 C 143.617 32.800,143.200 32.985,143.200 33.400 C 143.200 33.842,142.738 34.000,141.443 34.000 C 140.332 34.000,139.609 34.200,139.477 34.543 C 139.363 34.842,138.713 35.197,138.034 35.333 C 137.303 35.479,136.800 35.828,136.800 36.190 C 136.800 36.533,136.450 36.800,136.000 36.800 C 135.556 36.800,135.200 37.067,135.200 37.400 C 135.200 37.800,134.800 38.000,134.000 38.000 C 133.200 38.000,132.800 38.200,132.800 38.600 C 132.800 38.930,132.455 39.200,132.033 39.200 C 130.841 39.200,130.000 39.631,130.000 40.243 C 130.000 40.549,129.730 40.800,129.400 40.800 C 129.070 40.800,128.800 41.070,128.800 41.400 C 128.800 41.801,128.399 42.000,127.587 42.000 C 126.879 42.000,126.279 42.249,126.145 42.600 C 126.018 42.930,125.664 43.200,125.357 43.200 C 125.051 43.200,124.800 43.560,124.800 44.000 C 124.800 44.533,124.533 44.800,124.000 44.800 C 123.556 44.800,123.200 45.067,123.200 45.400 C 123.200 45.800,122.800 46.000,122.000 46.000 C 121.310 46.000,120.797 46.213,120.793 46.500 C 120.785 47.110,119.058 48.800,118.444 48.800 C 118.200 48.800,118.000 49.070,118.000 49.400 C 118.000 49.730,117.730 50.000,117.400 50.000 C 117.070 50.000,116.800 50.249,116.800 50.553 C 116.800 50.858,116.440 51.201,116.000 51.316 C 115.560 51.431,115.200 51.812,115.200 52.163 C 115.200 52.513,114.930 52.800,114.600 52.800 C 114.270 52.800,114.000 53.070,114.000 53.400 C 114.000 53.730,113.730 54.000,113.400 54.000 C 113.070 54.000,112.800 54.249,112.800 54.553 C 112.800 54.858,112.440 55.201,112.000 55.316 C 111.560 55.431,111.200 55.812,111.200 56.163 C 111.200 56.513,110.930 56.800,110.600 56.800 C 110.270 56.800,110.000 57.070,110.000 57.400 C 110.000 57.730,109.730 58.000,109.400 58.000 C 109.070 58.000,108.800 58.230,108.800 58.511 C 108.800 58.792,108.440 59.330,108.000 59.707 C 107.560 60.084,107.200 60.754,107.200 61.196 C 107.200 61.644,106.934 62.000,106.600 62.000 C 106.270 62.000,106.000 62.276,106.000 62.613 C 106.000 62.949,105.730 63.329,105.400 63.455 C 105.066 63.584,104.800 64.178,104.800 64.796 C 104.800 65.570,104.558 65.970,104.000 66.116 C 103.417 66.268,103.200 66.662,103.200 67.563 C 103.200 68.396,103.004 68.800,102.600 68.800 C 102.200 68.800,102.000 69.200,102.000 70.000 C 102.000 70.800,101.800 71.200,101.400 71.200 C 100.981 71.200,100.800 71.622,100.800 72.600 C 100.800 73.733,100.648 74.000,100.000 74.000 C 99.352 74.000,99.200 74.267,99.200 75.400 C 99.200 76.378,99.019 76.800,98.600 76.800 C 98.200 76.800,98.000 77.200,98.000 78.000 C 98.000 78.800,97.800 79.200,97.400 79.200 C 96.985 79.200,96.800 79.617,96.800 80.553 C 96.800 81.570,96.601 81.959,96.000 82.116 C 95.346 82.287,95.200 82.662,95.200 84.163 C 95.200 85.529,95.046 86.000,94.600 86.000 C 94.181 86.000,94.000 86.422,94.000 87.400 C 94.000 88.378,93.819 88.800,93.400 88.800 C 92.949 88.800,92.800 89.284,92.800 90.753 C 92.800 92.370,92.662 92.743,92.000 92.916 C 91.346 93.087,91.200 93.462,91.200 94.963 C 91.200 96.329,91.046 96.800,90.600 96.800 C 90.128 96.800,90.000 97.356,90.000 99.400 C 90.000 101.444,89.872 102.000,89.400 102.000 C 88.949 102.000,88.800 102.484,88.800 103.953 C 88.800 105.570,88.662 105.943,88.000 106.116 C 87.312 106.296,87.200 106.662,87.200 108.720 C 87.200 110.479,87.041 111.175,86.600 111.345 C 86.151 111.517,86.000 112.234,86.000 114.187 C 86.000 116.243,85.872 116.800,85.400 116.800 C 84.917 116.800,84.800 117.417,84.800 119.953 C 84.800 122.770,84.715 123.129,84.000 123.316 C 83.284 123.503,83.200 123.862,83.200 126.720 C 83.200 129.190,83.064 129.967,82.600 130.145 C 82.117 130.330,82.000 131.234,82.000 134.787 C 82.000 138.443,81.897 139.200,81.400 139.200 C 80.888 139.200,80.800 140.284,80.800 146.553 C 80.800 153.570,80.763 153.916,80.000 154.116 C 78.606 154.481,78.841 166.000,80.243 166.000 C 80.697 166.000,80.800 167.225,80.800 172.600 C 80.800 178.200,80.891 179.200,81.400 179.200 C 81.900 179.200,82.000 180.000,82.000 184.000 C 82.000 188.000,81.900 188.800,81.400 188.800 C 81.070 188.800,80.800 189.070,80.800 189.400 C 80.800 189.730,80.549 190.000,80.243 190.000 C 79.631 190.000,79.200 190.841,79.200 192.033 C 79.200 192.455,78.930 192.800,78.600 192.800 C 78.205 192.800,78.000 193.195,78.000 193.957 C 78.000 194.617,77.742 195.213,77.400 195.345 C 77.049 195.479,76.800 196.079,76.800 196.787 C 76.800 197.557,76.597 198.000,76.243 198.000 C 75.545 198.000,75.200 198.871,75.200 200.633 C 75.200 201.581,75.016 202.000,74.600 202.000 C 74.147 202.000,74.000 202.489,74.000 204.000 C 74.000 205.511,73.853 206.000,73.400 206.000 C 72.947 206.000,72.800 206.489,72.800 208.000 C 72.800 209.443,72.645 210.000,72.243 210.000 C 71.408 210.000,71.200 210.924,71.200 214.633 C 71.200 217.359,71.086 218.000,70.600 218.000 C 69.697 218.000,69.697 237.509,70.600 237.855 C 71.502 238.201,71.502 258.999,70.600 259.345 C 70.086 259.542,70.000 261.190,70.000 270.787 C 70.000 280.487,70.081 282.000,70.600 282.000 C 71.125 282.000,71.200 284.356,71.200 300.804 C 71.200 319.113,71.221 319.626,72.000 320.293 C 72.673 320.869,72.800 321.473,72.800 324.089 C 72.800 326.588,72.918 327.200,73.400 327.200 C 73.871 327.200,74.000 327.751,74.000 329.757 C 74.000 331.661,74.153 332.373,74.600 332.545 C 74.977 332.689,75.200 333.301,75.200 334.191 C 75.200 335.113,75.480 335.847,76.000 336.293 C 76.444 336.673,76.800 337.473,76.800 338.089 C 76.800 338.810,77.011 339.200,77.400 339.200 C 77.853 339.200,78.000 339.689,78.000 341.200 C 78.000 342.711,78.147 343.200,78.600 343.200 C 78.930 343.200,79.200 343.545,79.200 343.967 C 79.200 345.159,79.631 346.000,80.243 346.000 C 80.549 346.000,80.800 346.270,80.800 346.600 C 80.800 346.930,81.070 347.200,81.400 347.200 C 81.819 347.200,82.000 347.622,82.000 348.600 C 82.000 349.578,82.181 350.000,82.600 350.000 C 83.004 350.000,83.200 350.404,83.200 351.237 C 83.200 352.138,83.417 352.532,84.000 352.684 C 84.440 352.799,84.800 353.142,84.800 353.447 C 84.800 353.751,85.070 354.000,85.400 354.000 C 85.730 354.000,86.000 354.270,86.000 354.600 C 86.000 354.930,86.270 355.200,86.600 355.200 C 86.930 355.200,87.200 355.545,87.200 355.967 C 87.200 357.159,87.631 358.000,88.243 358.000 C 88.549 358.000,88.800 358.270,88.800 358.600 C 88.800 358.930,89.070 359.200,89.400 359.200 C 89.730 359.200,90.000 359.476,90.000 359.813 C 90.000 360.149,90.270 360.529,90.600 360.655 C 90.930 360.782,91.200 361.136,91.200 361.443 C 91.200 361.749,91.560 362.000,92.000 362.000 C 92.444 362.000,92.800 362.267,92.800 362.600 C 92.800 362.930,93.070 363.200,93.400 363.200 C 93.730 363.200,94.003 363.425,94.007 363.700 C 94.015 364.310,95.742 366.000,96.356 366.000 C 96.600 366.000,96.800 366.270,96.800 366.600 C 96.800 367.000,97.200 367.200,98.000 367.200 C 98.831 367.200,99.200 367.396,99.200 367.837 C 99.200 368.188,99.560 368.569,100.000 368.684 C 100.440 368.799,100.800 369.142,100.800 369.447 C 100.800 369.795,101.245 370.000,102.000 370.000 C 102.800 370.000,103.200 370.200,103.200 370.600 C 103.200 370.930,103.539 371.200,103.953 371.200 C 104.370 371.200,104.800 371.557,104.916 372.000 C 105.057 372.541,105.462 372.800,106.163 372.800 C 106.818 372.800,107.200 373.021,107.200 373.400 C 107.200 373.819,107.622 374.000,108.600 374.000 C 109.578 374.000,110.000 374.181,110.000 374.600 C 110.000 375.019,110.422 375.200,111.400 375.200 C 112.533 375.200,112.800 375.352,112.800 376.000 C 112.800 376.616,113.067 376.800,113.957 376.800 C 114.617 376.800,115.213 377.058,115.345 377.400 C 115.479 377.751,116.079 378.000,116.787 378.000 C 117.599 378.000,118.000 378.199,118.000 378.600 C 118.000 379.051,118.484 379.200,119.953 379.200 C 121.570 379.200,121.943 379.338,122.116 380.000 C 122.296 380.688,122.662 380.800,124.720 380.800 C 126.479 380.800,127.175 380.959,127.345 381.400 C 127.523 381.864,128.301 382.000,130.787 382.000 C 133.376 382.000,134.000 382.116,134.000 382.600 C 134.000 383.117,135.378 383.200,144.000 383.200 C 152.622 383.200,154.000 383.117,154.000 382.600 C 154.000 382.107,154.711 382.000,158.000 382.000 C 161.289 382.000,162.000 381.893,162.000 381.400 C 162.000 380.924,162.578 380.800,164.804 380.800 C 167.113 380.800,167.729 380.659,168.293 380.000 C 168.781 379.430,169.473 379.200,170.701 379.200 C 171.865 379.200,172.500 379.005,172.655 378.600 C 172.787 378.258,173.383 378.000,174.043 378.000 C 174.805 378.000,175.200 377.795,175.200 377.400 C 175.200 376.954,175.671 376.800,177.037 376.800 C 178.538 376.800,178.913 376.654,179.084 376.000 C 179.241 375.399,179.630 375.200,180.647 375.200 C 181.583 375.200,182.000 375.015,182.000 374.600 C 182.000 374.205,182.395 374.000,183.157 374.000 C 183.794 374.000,184.408 373.756,184.523 373.457 C 184.637 373.158,185.287 372.803,185.966 372.667 C 186.697 372.521,187.200 372.172,187.200 371.810 C 187.200 371.467,187.550 371.200,188.000 371.200 C 188.444 371.200,188.800 370.933,188.800 370.600 C 188.800 370.200,189.200 370.000,190.000 370.000 C 190.755 370.000,191.200 369.795,191.200 369.447 C 191.200 369.142,191.560 368.799,192.000 368.684 C 192.440 368.569,192.800 368.188,192.800 367.837 C 192.800 367.487,193.070 367.200,193.400 367.200 C 193.730 367.200,194.000 366.930,194.000 366.600 C 194.000 366.230,194.376 366.000,194.982 366.000 C 195.937 366.000,198.000 364.348,198.000 363.582 C 198.000 363.372,198.270 363.200,198.600 363.200 C 198.930 363.200,199.200 362.930,199.200 362.600 C 199.200 362.267,199.556 362.000,200.000 362.000 C 200.440 362.000,200.800 361.749,200.800 361.443 C 200.800 361.136,201.070 360.782,201.400 360.655 C 201.730 360.529,202.000 360.149,202.000 359.813 C 202.000 359.379,202.409 359.200,203.400 359.200 C 204.378 359.200,204.800 359.019,204.800 358.600 C 204.800 358.094,205.706 358.000,210.557 358.000 C 215.306 358.000,216.355 357.895,216.545 357.400 C 216.715 356.957,217.416 356.800,219.225 356.800 C 221.338 356.800,221.704 356.690,221.884 356.000 C 222.066 355.305,222.430 355.200,224.647 355.200 C 226.650 355.200,227.200 355.071,227.200 354.600 C 227.200 354.128,227.757 354.000,229.813 354.000 C 231.766 354.000,232.483 353.849,232.655 353.400 C 232.825 352.959,233.521 352.800,235.280 352.800 C 237.338 352.800,237.704 352.688,237.884 352.000 C 238.066 351.305,238.430 351.200,240.647 351.200 C 242.650 351.200,243.200 351.071,243.200 350.600 C 243.200 350.147,243.689 350.000,245.200 350.000 C 246.711 350.000,247.200 349.853,247.200 349.400 C 247.200 348.954,247.671 348.800,249.037 348.800 C 250.538 348.800,250.913 348.654,251.084 348.000 C 251.257 347.338,251.630 347.200,253.247 347.200 C 254.716 347.200,255.200 347.051,255.200 346.600 C 255.200 346.181,255.622 346.000,256.600 346.000 C 257.578 346.000,258.000 345.819,258.000 345.400 C 258.000 344.984,258.419 344.800,259.367 344.800 C 261.129 344.800,262.000 344.455,262.000 343.757 C 262.000 343.403,262.443 343.200,263.213 343.200 C 263.921 343.200,264.521 342.951,264.655 342.600 C 264.787 342.258,265.383 342.000,266.043 342.000 C 266.805 342.000,267.200 341.795,267.200 341.400 C 267.200 340.996,267.604 340.800,268.437 340.800 C 269.338 340.800,269.732 340.583,269.884 340.000 C 270.033 339.431,270.430 339.200,271.259 339.200 C 271.927 339.200,272.524 338.943,272.655 338.600 C 272.787 338.258,273.383 338.000,274.043 338.000 C 274.761 338.000,275.200 337.790,275.200 337.447 C 275.200 337.142,275.560 336.799,276.000 336.684 C 276.440 336.569,276.800 336.188,276.800 335.837 C 276.800 335.396,277.169 335.200,278.000 335.200 C 278.800 335.200,279.200 335.000,279.200 334.600 C 279.200 334.181,279.622 334.000,280.600 334.000 C 281.578 334.000,282.000 333.819,282.000 333.400 C 282.000 333.070,282.270 332.800,282.600 332.800 C 282.933 332.800,283.200 332.444,283.200 332.000 C 283.200 331.352,283.467 331.200,284.600 331.200 C 285.578 331.200,286.000 331.019,286.000 330.600 C 286.000 330.270,286.270 330.000,286.600 330.000 C 286.930 330.000,287.200 329.751,287.200 329.447 C 287.200 329.142,287.560 328.799,288.000 328.684 C 288.440 328.569,288.800 328.188,288.800 327.837 C 288.800 327.396,289.169 327.200,290.000 327.200 C 290.800 327.200,291.200 327.000,291.200 326.600 C 291.200 326.270,291.476 326.000,291.813 326.000 C 292.149 326.000,292.529 325.730,292.655 325.400 C 292.782 325.070,293.136 324.800,293.443 324.800 C 293.749 324.800,294.000 324.440,294.000 324.000 C 294.000 323.556,294.267 323.200,294.600 323.200 C 294.930 323.200,295.200 322.930,295.200 322.600 C 295.200 322.218,295.584 322.000,296.254 322.000 C 297.265 322.000,299.200 320.410,299.200 319.579 C 299.200 319.371,299.380 319.200,299.600 319.200 C 299.820 319.200,300.720 318.480,301.600 317.600 C 302.480 316.720,303.200 315.820,303.200 315.600 C 303.200 315.380,303.474 315.200,303.810 315.200 C 304.168 315.200,304.519 314.704,304.660 314.000 C 304.792 313.340,305.147 312.800,305.450 312.800 C 305.752 312.800,306.000 312.440,306.000 312.000 C 306.000 311.556,306.267 311.200,306.600 311.200 C 306.930 311.200,307.200 310.930,307.200 310.600 C 307.200 310.267,307.556 310.000,308.000 310.000 C 308.440 310.000,308.800 309.749,308.800 309.443 C 308.800 309.136,309.070 308.782,309.400 308.655 C 309.730 308.529,310.000 308.149,310.000 307.813 C 310.000 307.476,310.270 307.200,310.600 307.200 C 311.000 307.200,311.200 306.800,311.200 306.000 C 311.200 305.169,311.396 304.800,311.837 304.800 C 312.188 304.800,312.569 304.440,312.684 304.000 C 312.799 303.560,313.142 303.200,313.447 303.200 C 313.795 303.200,314.000 302.755,314.000 302.000 C 314.000 301.200,314.200 300.800,314.600 300.800 C 314.933 300.800,315.200 300.444,315.200 300.000 C 315.200 299.550,315.467 299.200,315.810 299.200 C 316.165 299.200,316.518 298.709,316.655 298.026 C 316.784 297.380,317.140 296.755,317.445 296.638 C 317.750 296.521,318.000 295.879,318.000 295.213 C 318.000 294.401,318.199 294.000,318.600 294.000 C 319.015 294.000,319.200 293.583,319.200 292.647 C 319.200 291.630,319.399 291.241,320.000 291.084 C 320.529 290.946,320.800 290.538,320.800 289.880 C 320.800 289.333,321.070 288.782,321.400 288.655 C 321.751 288.521,322.000 287.921,322.000 287.213 C 322.000 286.401,322.199 286.000,322.600 286.000 C 323.051 286.000,323.200 285.516,323.200 284.047 C 323.200 282.430,323.338 282.057,324.000 281.884 C 324.654 281.713,324.800 281.338,324.800 279.837 C 324.800 278.471,324.954 278.000,325.400 278.000 C 325.872 278.000,326.000 277.444,326.000 275.400 C 326.000 273.356,326.128 272.800,326.600 272.800 C 327.076 272.800,327.200 272.222,327.200 270.000 C 327.200 267.467,327.276 267.200,328.000 267.200 C 328.747 267.200,328.800 266.933,328.800 263.200 C 328.800 259.911,328.907 259.200,329.400 259.200 C 329.924 259.200,330.000 256.954,330.000 241.387 C 330.000 225.923,329.921 223.545,329.400 223.345 C 328.941 223.168,328.800 222.413,328.800 220.120 C 328.800 217.462,328.710 217.102,328.000 216.916 C 327.305 216.734,327.200 216.370,327.200 214.141 C 327.200 212.229,327.047 211.516,326.600 211.345 C 326.192 211.188,326.000 210.549,326.000 209.345 C 326.000 208.141,325.808 207.501,325.400 207.345 C 324.990 207.187,324.800 206.546,324.800 205.320 C 324.800 203.862,324.650 203.486,324.000 203.316 C 323.352 203.147,323.200 202.770,323.200 201.341 C 323.200 200.140,323.008 199.501,322.600 199.345 C 322.258 199.213,322.000 198.617,322.000 197.957 C 322.000 197.195,321.795 196.800,321.400 196.800 C 320.954 196.800,320.800 196.329,320.800 194.963 C 320.800 193.462,320.654 193.087,320.000 192.916 C 319.399 192.759,319.200 192.370,319.200 191.353 C 319.200 190.417,319.015 190.000,318.600 190.000 C 318.199 190.000,318.000 189.599,318.000 188.787 C 318.000 188.079,317.751 187.479,317.400 187.345 C 317.070 187.218,316.800 186.667,316.800 186.120 C 316.800 185.462,316.529 185.054,316.000 184.916 C 315.399 184.759,315.200 184.370,315.200 183.353 C 315.200 182.417,315.015 182.000,314.600 182.000 C 314.270 182.000,314.000 181.730,314.000 181.400 C 314.000 181.070,313.730 180.800,313.400 180.800 C 312.492 180.800,312.492 144.893,313.400 144.545 C 313.902 144.352,314.000 143.150,314.000 137.157 C 314.000 131.062,314.089 130.000,314.600 130.000 C 315.116 130.000,315.200 128.694,315.200 120.647 C 315.200 111.630,315.229 111.286,316.000 111.084 C 316.777 110.881,316.800 110.538,316.800 99.200 C 316.800 87.862,316.777 87.519,316.000 87.316 C 315.241 87.117,315.200 86.770,315.200 80.553 C 315.200 74.995,315.109 74.000,314.600 74.000 C 314.128 74.000,314.000 73.444,314.000 71.400 C 314.000 69.356,313.872 68.800,313.400 68.800 C 312.954 68.800,312.800 68.329,312.800 66.963 C 312.800 65.462,312.654 65.087,312.000 64.916 C 311.399 64.759,311.200 64.370,311.200 63.353 C 311.200 62.417,311.015 62.000,310.600 62.000 C 310.155 62.000,310.000 61.532,310.000 60.187 C 310.000 58.945,309.811 58.302,309.400 58.145 C 309.052 58.011,308.800 57.413,308.800 56.720 C 308.800 55.862,308.575 55.466,308.000 55.316 C 307.433 55.168,307.200 54.770,307.200 53.953 C 307.200 53.195,306.995 52.800,306.600 52.800 C 306.267 52.800,306.000 52.444,306.000 52.000 C 306.000 51.556,305.733 51.200,305.400 51.200 C 305.021 51.200,304.800 50.818,304.800 50.163 C 304.800 49.462,304.541 49.057,304.000 48.916 C 303.557 48.800,303.200 48.370,303.200 47.953 C 303.200 47.539,302.930 47.200,302.600 47.200 C 302.200 47.200,302.000 46.800,302.000 46.000 C 302.000 45.200,301.800 44.800,301.400 44.800 C 301.070 44.800,300.800 44.513,300.800 44.163 C 300.800 43.812,300.440 43.431,300.000 43.316 C 299.560 43.201,299.200 42.858,299.200 42.553 C 299.200 42.249,298.930 42.000,298.600 42.000 C 298.270 42.000,298.000 41.730,298.000 41.400 C 298.000 41.070,297.730 40.800,297.400 40.800 C 297.070 40.800,296.800 40.513,296.800 40.163 C 296.800 39.812,296.440 39.431,296.000 39.316 C 295.560 39.201,295.200 38.858,295.200 38.553 C 295.200 38.249,294.930 38.000,294.600 38.000 C 294.270 38.000,294.000 37.730,294.000 37.400 C 294.000 37.070,293.730 36.800,293.400 36.800 C 293.070 36.800,292.800 36.513,292.800 36.163 C 292.800 35.812,292.440 35.431,292.000 35.316 C 291.560 35.201,291.200 34.858,291.200 34.553 C 291.200 34.249,290.930 34.000,290.600 34.000 C 290.270 34.000,290.000 33.730,290.000 33.400 C 290.000 33.070,289.770 32.800,289.489 32.800 C 289.208 32.800,288.670 32.440,288.293 32.000 C 287.916 31.560,287.246 31.200,286.804 31.200 C 286.356 31.200,286.000 30.934,286.000 30.600 C 286.000 30.270,285.730 30.000,285.400 30.000 C 285.070 30.000,284.800 29.730,284.800 29.400 C 284.800 28.981,284.378 28.800,283.400 28.800 C 282.267 28.800,282.000 28.648,282.000 28.000 C 282.000 27.548,281.733 27.200,281.387 27.200 C 281.051 27.200,280.671 26.930,280.545 26.600 C 280.413 26.258,279.817 26.000,279.157 26.000 C 278.395 26.000,278.000 25.795,278.000 25.400 C 278.000 24.981,277.578 24.800,276.600 24.800 C 275.467 24.800,275.200 24.648,275.200 24.000 C 275.200 23.384,274.933 23.200,274.043 23.200 C 273.383 23.200,272.787 22.942,272.655 22.600 C 272.498 22.189,271.855 22.000,270.613 22.000 C 269.268 22.000,268.800 21.845,268.800 21.400 C 268.800 20.985,268.383 20.800,267.447 20.800 C 266.430 20.800,266.041 20.601,265.884 20.000 C 265.704 19.312,265.338 19.200,263.280 19.200 C 261.521 19.200,260.825 19.041,260.655 18.600 C 260.477 18.136,259.699 18.000,257.213 18.000 C 254.624 18.000,254.000 17.884,254.000 17.400 C 254.000 16.879,252.333 16.800,241.400 16.800 C 230.467 16.800,228.800 16.879,228.800 17.400 M248.200 51.758 C 252.075 52.276,253.899 52.806,259.200 54.952 C 259.911 55.240,260.386 55.533,264.661 58.319 C 272.584 63.483,278.410 72.095,280.548 81.804 C 282.205 89.324,281.610 116.192,279.392 134.000 C 278.198 143.591,277.580 154.283,277.647 164.200 C 277.710 173.510,277.655 174.365,276.857 176.586 C 276.386 177.899,276.000 179.279,276.000 179.653 C 276.000 180.028,275.550 181.230,275.000 182.325 C 273.644 185.025,273.642 185.016,276.655 188.835 C 279.725 192.727,282.800 197.286,282.800 197.945 C 282.800 198.195,282.958 198.400,283.152 198.400 C 283.571 198.400,289.600 210.426,289.600 211.262 C 289.600 211.580,289.752 212.011,289.938 212.220 C 290.263 212.585,291.197 215.178,292.525 219.400 C 293.524 222.576,294.341 226.134,294.604 228.455 C 294.737 229.635,295.124 232.247,295.463 234.261 C 296.518 240.521,295.646 253.101,293.581 261.400 C 292.156 267.127,291.612 268.948,291.203 269.357 C 290.981 269.579,290.800 270.029,290.800 270.357 C 290.800 270.686,290.194 272.225,289.454 273.777 C 288.713 275.330,287.993 276.870,287.852 277.200 C 283.935 286.419,267.686 302.465,257.842 306.838 C 257.379 307.044,256.460 307.557,255.800 307.980 C 254.468 308.832,252.176 309.976,249.300 311.225 C 248.255 311.678,246.860 312.310,246.200 312.628 C 244.913 313.249,238.722 315.532,237.400 315.873 C 236.960 315.986,235.700 316.406,234.600 316.805 C 233.500 317.205,231.880 317.723,231.000 317.956 C 227.318 318.933,224.100 319.716,222.600 320.000 C 221.044 320.295,217.874 321.073,213.800 322.161 C 208.931 323.461,207.469 323.696,202.000 324.061 C 195.348 324.506,191.634 324.535,188.150 324.173 C 185.384 323.885,185.982 323.413,182.533 328.600 C 178.875 334.101,172.585 340.057,167.608 342.733 C 163.114 345.150,160.562 346.396,160.102 346.398 C 159.827 346.399,158.567 346.755,157.302 347.190 C 140.078 353.099,118.137 343.946,110.340 327.600 C 109.152 325.111,108.000 322.308,108.000 321.910 C 108.000 321.696,107.758 320.954,107.462 320.260 C 105.348 315.307,104.710 300.388,105.204 267.400 C 105.478 249.076,105.364 235.483,104.885 229.200 C 104.605 225.526,104.580 222.960,104.816 222.200 C 105.021 221.540,105.541 219.560,105.971 217.800 C 107.791 210.360,112.804 202.974,120.500 196.396 C 121.825 195.264,121.851 194.828,120.743 192.444 C 120.272 191.430,119.640 190.060,119.339 189.400 C 118.520 187.606,116.001 178.944,115.995 177.905 C 115.993 177.407,115.726 176.010,115.404 174.800 C 113.497 167.652,114.083 149.287,116.609 137.000 C 116.926 135.460,117.370 133.120,117.595 131.800 C 117.821 130.480,118.266 128.230,118.585 126.800 C 118.903 125.370,119.364 123.300,119.609 122.200 C 119.853 121.100,120.385 119.030,120.790 117.600 C 121.194 116.170,121.817 113.920,122.173 112.600 C 122.530 111.280,123.012 109.660,123.246 109.000 C 123.479 108.340,123.845 107.080,124.058 106.200 C 124.271 105.320,124.616 104.429,124.823 104.220 C 125.030 104.011,125.201 103.561,125.202 103.220 C 125.204 102.879,125.474 102.084,125.802 101.454 C 126.131 100.824,126.400 100.126,126.400 99.902 C 126.400 98.745,130.910 89.050,133.703 84.200 C 135.433 81.197,141.263 75.105,144.411 73.010 C 145.395 72.355,146.643 71.396,147.184 70.880 C 147.726 70.363,148.716 69.684,149.384 69.371 C 150.053 69.058,151.140 68.452,151.800 68.024 C 157.082 64.601,166.145 61.273,174.400 59.726 C 184.731 57.789,202.637 58.412,210.169 60.969 C 212.430 61.736,214.245 61.781,214.515 61.077 C 214.681 60.646,218.797 57.770,222.200 55.709 C 228.857 51.677,237.626 50.345,248.200 51.758 M236.910 81.792 C 231.884 83.977,229.300 91.545,231.405 97.919 C 232.571 101.450,230.368 105.154,227.083 105.186 C 225.709 105.199,225.276 104.903,222.483 102.047 C 220.787 100.314,218.410 98.209,217.200 97.370 C 213.105 94.532,211.685 93.600,211.457 93.600 C 211.333 93.600,209.919 92.991,208.315 92.247 C 205.643 91.007,204.420 90.599,200.400 89.606 C 194.658 88.187,182.547 88.300,177.800 89.816 C 176.920 90.097,175.570 90.445,174.800 90.589 C 173.496 90.833,172.033 91.405,169.600 92.621 C 162.569 96.137,159.491 98.895,157.456 103.503 C 156.606 105.427,155.750 107.270,155.553 107.600 C 155.356 107.930,155.125 108.380,155.039 108.600 C 154.877 109.017,152.265 116.509,151.554 118.600 C 151.329 119.260,150.708 121.600,150.174 123.800 C 149.640 126.000,148.932 128.716,148.601 129.835 C 148.271 130.954,148.000 132.208,148.000 132.622 C 148.000 133.035,147.749 134.099,147.443 134.987 C 147.137 135.874,146.682 138.040,146.433 139.800 C 146.183 141.560,145.706 144.620,145.373 146.600 C 144.219 153.449,144.026 155.422,144.013 160.537 C 143.974 175.777,150.077 188.773,160.600 195.861 C 165.655 199.266,173.196 202.800,175.406 202.800 C 175.683 202.800,176.424 203.069,177.054 203.398 C 177.684 203.726,178.740 203.996,179.400 203.998 C 180.060 203.999,181.860 204.263,183.400 204.583 C 184.940 204.904,188.360 205.355,191.000 205.586 C 207.953 207.072,215.403 208.268,219.914 210.229 C 220.636 210.543,221.465 210.800,221.757 210.800 C 222.503 210.800,227.080 213.232,230.290 215.334 C 234.987 218.409,239.900 224.161,241.815 228.825 C 242.396 230.241,243.042 231.722,243.249 232.116 C 243.457 232.509,243.805 234.309,244.024 236.116 C 244.243 237.922,244.513 239.654,244.624 239.965 C 244.734 240.276,244.627 242.796,244.385 245.565 C 243.229 258.789,237.370 266.737,226.400 269.961 C 224.750 270.445,223.087 271.013,222.705 271.221 C 221.679 271.781,217.616 273.210,211.391 275.200 C 205.444 277.101,196.185 277.563,190.705 276.232 C 185.028 274.853,181.399 272.351,174.416 265.000 C 172.762 263.259,168.525 257.488,167.956 256.200 C 167.761 255.760,167.428 255.130,167.216 254.800 C 167.003 254.470,166.347 253.120,165.758 251.800 C 163.394 246.502,162.491 243.717,161.368 238.266 C 161.058 236.762,160.722 235.397,160.620 235.233 C 160.519 235.068,160.241 232.879,160.004 230.367 C 158.950 219.225,157.292 217.375,148.400 217.426 C 143.422 217.455,140.879 218.351,137.855 221.143 C 134.585 224.161,134.328 225.457,135.228 234.400 C 135.813 240.212,135.819 242.254,135.275 250.400 C 134.601 260.500,134.662 282.903,135.372 285.627 C 135.867 287.528,135.867 288.330,135.375 291.611 C 132.860 308.357,137.011 319.311,145.626 318.664 C 149.523 318.371,152.226 317.260,154.693 314.936 C 154.964 314.680,155.331 314.410,155.508 314.336 C 157.710 313.407,160.148 307.240,159.521 304.181 C 159.170 302.471,159.070 300.632,159.276 299.675 C 159.308 299.524,159.226 298.770,159.093 298.000 C 156.845 284.968,159.359 281.037,166.769 285.998 C 176.563 292.556,187.445 295.425,198.518 294.368 C 202.936 293.946,204.485 293.665,210.300 292.234 C 211.565 291.922,213.860 291.367,215.400 290.999 C 216.940 290.631,218.613 290.166,219.119 289.965 C 219.624 289.764,220.366 289.600,220.768 289.600 C 221.625 289.600,227.485 287.779,228.495 287.199 C 228.877 286.980,229.471 286.800,229.817 286.800 C 230.383 286.800,231.197 286.482,235.500 284.576 C 244.147 280.746,250.967 276.030,255.858 270.497 C 258.523 267.483,259.313 266.442,259.878 265.200 C 260.029 264.870,260.628 263.787,261.211 262.793 C 262.324 260.893,264.008 255.850,264.882 251.800 C 265.681 248.097,265.534 234.711,264.669 232.450 C 264.301 231.487,263.999 230.227,263.998 229.650 C 263.996 229.072,263.726 228.084,263.398 227.454 C 263.069 226.824,262.800 225.970,262.800 225.555 C 262.800 225.141,262.186 223.497,261.434 221.901 C 260.683 220.306,259.657 218.104,259.154 217.008 C 258.651 215.913,257.433 213.843,256.447 212.408 C 255.460 210.974,254.163 209.078,253.563 208.196 C 250.759 204.070,240.132 195.709,236.419 194.708 C 235.639 194.498,234.829 194.162,234.620 193.963 C 234.411 193.763,233.961 193.594,233.620 193.586 C 233.279 193.579,232.280 193.225,231.400 192.800 C 230.520 192.375,229.476 192.021,229.080 192.014 C 228.684 192.006,227.867 191.745,227.265 191.434 C 225.289 190.412,217.532 189.057,209.800 188.383 C 203.114 187.801,194.553 186.671,188.790 185.610 C 185.911 185.080,179.640 182.852,176.709 181.318 C 172.813 179.280,168.954 172.303,168.015 165.600 C 167.845 164.390,167.485 162.410,167.214 161.200 C 166.644 158.654,166.836 151.273,167.582 147.000 C 168.203 143.446,170.676 132.829,171.496 130.200 C 171.838 129.100,172.432 127.210,172.815 126.000 C 173.198 124.790,173.829 122.720,174.218 121.400 C 174.606 120.080,175.166 118.433,175.462 117.740 C 175.758 117.046,176.000 116.287,176.000 116.052 C 176.000 115.407,179.227 110.824,180.676 109.410 C 187.406 102.847,201.061 106.474,207.791 116.613 C 209.182 118.708,213.200 126.431,213.200 127.009 C 213.200 127.158,213.458 127.846,213.773 128.540 C 214.088 129.233,215.094 131.582,216.007 133.761 C 216.921 135.939,217.821 138.009,218.006 138.361 C 219.836 141.834,221.252 146.110,222.589 152.200 C 223.694 157.233,223.982 158.684,224.413 161.400 C 226.336 173.507,226.420 173.800,228.523 175.691 C 232.341 179.121,240.142 178.394,245.201 174.138 C 247.535 172.174,247.659 171.409,247.822 158.000 C 247.903 151.290,248.158 144.090,248.389 142.000 C 248.619 139.910,248.989 136.220,249.211 133.800 C 249.432 131.380,249.804 127.732,250.036 125.694 C 252.352 105.345,252.053 87.883,249.331 84.496 C 246.888 81.457,240.753 80.122,236.910 81.792 " stroke="none" fill-rule="evenodd" style="fill: rgb(251, 252, 252);"/>
  </g>
</svg>