<?xml version="1.0" encoding="utf-8"?>
<svg viewBox="0 0 500 500" width="100px" height="100px" xmlns="http://www.w3.org/2000/svg">
  <path d="M 26.284 26.284 L 473.716 26.284 L 473.716 473.716 L 26.284 473.716 L 26.284 26.284 Z" fill="none" style=""/>
  <path d="M 388.517 268.27 C 389.263 262.304 389.822 256.338 389.822 250 C 389.822 243.661 389.263 237.695 388.517 231.73 L 427.854 200.969 C 431.396 198.172 432.328 193.139 430.091 189.037 L 392.805 124.533 C 390.568 120.431 385.534 118.94 381.433 120.431 L 335.012 139.074 C 325.317 131.617 314.877 125.465 303.505 120.804 L 296.421 71.4 C 295.861 66.926 291.946 63.57 287.286 63.57 L 212.714 63.57 C 208.053 63.57 204.138 66.926 203.579 71.4 L 196.494 120.804 C 185.122 125.465 174.682 131.803 164.988 139.074 L 118.567 120.431 C 114.279 118.753 109.432 120.431 107.194 124.533 L 69.909 189.037 C 67.485 193.139 68.604 198.172 72.146 200.969 L 111.482 231.73 C 110.737 237.695 110.177 243.848 110.177 250 C 110.177 256.152 110.737 262.304 111.482 268.27 L 72.146 299.031 C 68.604 301.827 67.671 306.861 69.909 310.962 L 107.194 375.467 C 109.432 379.569 114.465 381.06 118.567 379.569 L 164.988 360.926 C 174.682 368.383 185.122 374.535 196.494 379.196 L 203.579 428.6 C 204.138 433.074 208.053 436.43 212.714 436.43 L 287.286 436.43 C 291.946 436.43 295.861 433.074 296.421 428.6 L 303.505 379.196 C 314.877 374.535 325.317 368.196 335.012 360.926 L 381.433 379.569 C 385.721 381.246 390.568 379.569 392.805 375.467 L 430.091 310.962 C 432.328 306.861 431.396 301.827 427.854 299.031 L 388.517 268.27 Z M 250 315.25 C 214.019 315.25 184.749 285.981 184.749 250 C 184.749 214.019 214.019 184.749 250 184.749 C 285.981 184.749 315.25 214.019 315.25 250 C 315.25 285.981 285.981 315.25 250 315.25 Z" style="fill: rgb(1, 98, 255);"/>
</svg>